<svg id="Flat" viewBox="0 0 64 64" xmlns="http://www.w3.org/2000/svg"><path d="m27 42.25v16.5a5 5 0 0 0 5 5 5 5 0 0 0 5-5v-16.5z" fill="#ffd0b0"/><path d="m15.25 17v22a6.75 6.75 0 0 0 6.75 6.75h20a6.75 6.75 0 0 0 6.75-6.75v-22a16.75 16.75 0 0 0 -16.75-16.75 16.75 16.75 0 0 0 -16.75 16.75z" fill="#ffe05f"/><path d="m15.25 17v4.75h6.75a3.25 3.25 0 0 1 3.25 3.25v4a4.25 4.25 0 0 0 4.25 4.25 4.25 4.25 0 0 0 4.25-4.25v-4a3.25 3.25 0 0 1 3.25-3.25 3.25 3.25 0 0 1 3.25 3.25v7.5a4.25 4.25 0 0 0 4.25 4.25 4.25 4.25 0 0 0 4.25-4.25v-15.5a16.75 16.75 0 0 0 -16.75-16.75 16.75 16.75 0 0 0 -16.75 16.75z" fill="#ff7367"/></svg>